<svg xmlns="http://www.w3.org/2000/svg" width="67" height="67" viewBox="0 0 67 67">
  <g id="black-icon-small-3" transform="translate(-1374 -5489)">
    <rect id="Rectangle_434" data-name="Rectangle 434" width="67" height="67" transform="translate(1374 5489)" fill="none"/>
    <g id="Group_358" data-name="Group 358" transform="translate(-1054 11272.084)">
      <path id="Path_167" data-name="Path 167" d="M2460.814-5746.232l22.337-12.686a11.343,11.343,0,0,0-3.325-7.831,11.387,11.387,0,0,0-16.1,0l-1.542,1.542-1.542-1.542a11.387,11.387,0,0,0-16.1,0,11.387,11.387,0,0,0,0,16.1l1.542,1.542,3.088,3.088,11.648-6.481Z" transform="translate(-0.104 0)"/>
      <path id="Path_168" data-name="Path 168" d="M2478.181-5736.935,2466-5724.757a5.548,5.548,0,0,1-7.849,0l-9.091-9.09-8.062,4.485v12.2h42.058v-29.368a11.353,11.353,0,0,1-3.335,8.051Z" transform="translate(0 -12.168)"/>
      <path id="Path_169" data-name="Path 169" d="M2527.978-5746.993c0,.074.01.147.01.221V-5747Z" transform="translate(-44.932 -11.925)"/>
      <path id="Path_170" data-name="Path 170" d="M2469.325-5734.3v-6.263l-11.648,6.48,9.091,9.09a5.547,5.547,0,0,0,7.849,0l12.179-12.179,1.542-1.542a11.351,11.351,0,0,0,3.335-8.051c0-.074-.01-.148-.011-.222Z" transform="translate(-8.615 -11.931)" fill="#fff"/>
    </g>
  </g>
</svg>
