<svg xmlns="http://www.w3.org/2000/svg" width="87" height="80.473" viewBox="0 0 87 80.473">
  <g id="black-icon-2" transform="translate(-2376.433 5655)">
    <path id="Path_171" data-name="Path 171" d="M2463.433-5655h-87v57h17.134v-35.64a6.931,6.931,0,0,1,10.794-5.755l38.868,26.083a6.932,6.932,0,0,1,0,11.512l-5.662,3.8h25.866Z" transform="translate(0 0)"/>
    <path id="Path_172" data-name="Path 172" d="M2393.567-5581.473a6.932,6.932,0,0,0,10.795,5.756l33.2-22.284h-44Z" transform="translate(0 0.001)"/>
    <path id="Path_173" data-name="Path 173" d="M2443.229-5613.312l-38.867-26.085a6.933,6.933,0,0,0-10.795,5.757V-5598h44l5.662-3.8A6.931,6.931,0,0,0,2443.229-5613.312Z" transform="translate(0 0)" fill="#fff"/>
  </g>
</svg>
