<svg xmlns="http://www.w3.org/2000/svg" width="87" height="80.472" viewBox="0 0 87 80.472">
  <g id="colored-icon-2" transform="translate(-2376.433 5655)">
    <path id="Path_171" data-name="Path 171" d="M2463.433-5655h-87v57h17.134v-35.64a6.933,6.933,0,0,1,10.8-5.756l38.867,26.084a6.932,6.932,0,0,1,0,11.512l-5.662,3.8h25.866Z" fill="#f48385"/>
    <path id="Path_172" data-name="Path 172" d="M2393.567-5581.472a6.932,6.932,0,0,0,10.8,5.756l33.2-22.284h-44Z" fill="#23bcba"/>
    <path id="Path_173" data-name="Path 173" d="M2443.229-5613.312l-38.867-26.084a6.933,6.933,0,0,0-10.8,5.756V-5598h44l5.662-3.8A6.932,6.932,0,0,0,2443.229-5613.312Z" fill="#fcb139"/>
  </g>
</svg>
