<svg xmlns="http://www.w3.org/2000/svg" width="83.045" height="80.472" viewBox="0 0 83.045 80.472">
  <g id="colored-icon-1" transform="translate(-1387 -5502)">
    <g id="Group_358" data-name="Group 358" transform="translate(1387 5502)">
      <path id="Path_167" data-name="Path 167" d="M2479.927-5722.987l44.105-25.049a22.4,22.4,0,0,0-6.565-15.463,22.485,22.485,0,0,0-31.8,0l-3.044,3.045-3.046-3.045a22.485,22.485,0,0,0-31.8,0,22.485,22.485,0,0,0,0,31.8l3.043,3.044,6.1,6.1,23-12.8Z" transform="translate(-2441.009 5770.083)" fill="#f48385"/>
      <path id="Path_168" data-name="Path 168" d="M2514.416-5727.586l-24.048,24.047a10.954,10.954,0,0,1-15.5,0l-17.95-17.949L2441-5712.632v24.092h83.045v-57.988a22.417,22.417,0,0,1-6.585,15.9Z" transform="translate(-2441 5769.012)" fill="#23bcba"/>
      <path id="Path_169" data-name="Path 169" d="M2527.978-5746.986c0,.146.021.29.021.436V-5747Z" transform="translate(-2444.955 5769.034)"/>
      <path id="Path_170" data-name="Path 170" d="M2480.676-5721.937V-5734.3l-23,12.8,17.95,17.948a10.952,10.952,0,0,0,15.5,0l24.048-24.047,3.044-3.044a22.413,22.413,0,0,0,6.585-15.9c0-.146-.019-.293-.021-.438Z" transform="translate(-2441.758 5769.034)" fill="#fcb139"/>
    </g>
  </g>
</svg>
