<svg xmlns="http://www.w3.org/2000/svg" width="67" height="67" viewBox="0 0 67 67">
  <g id="colored-icon-small-2" transform="translate(-1277 -5366)">
    <g id="Group_819" data-name="Group 819" transform="translate(-1086.433 11035)">
      <path id="Path_171" data-name="Path 171" d="M2418.492-5655h-42.059v27.556h8.283v-17.229a3.351,3.351,0,0,1,5.219-2.783l18.789,12.61a3.351,3.351,0,0,1,0,5.565l-2.737,1.837h12.5Z" fill="#f48385"/>
      <path id="Path_172" data-name="Path 172" d="M2393.567-5590.01a3.351,3.351,0,0,0,5.219,2.783L2414.838-5598h-21.271Z" transform="translate(-8.851 -29.444)" fill="#23bcba"/>
      <path id="Path_173" data-name="Path 173" d="M2417.575-5627.4l-18.79-12.61a3.352,3.352,0,0,0-5.219,2.783V-5620h21.271l2.737-1.837A3.352,3.352,0,0,0,2417.575-5627.4Z" transform="translate(-8.851 -7.447)" fill="#fcb139"/>
    </g>
    <rect id="Rectangle_434" data-name="Rectangle 434" width="67" height="67" transform="translate(1277 5366)" fill="none"/>
  </g>
</svg>
