<svg xmlns="http://www.w3.org/2000/svg" width="772.31" height="691.212" viewBox="0 0 772.31 691.212">
  <g id="Group_782" data-name="Group 782" transform="translate(-6543.583 -5317.543)">
    <path id="Path_164" data-name="Path 164" d="M6489.884,5249.189c-7.854-4.989-17.206-7.146-26.5-7.146h-101.35a41.278,41.278,0,0,0-41.277,41.276h0a41.278,41.278,0,0,0,41.277,41.276h42.64l-277.943,489.289L5848.784,5324.6h383.527a41.277,41.277,0,0,0,41.275-41.276h0a41.277,41.277,0,0,0-41.275-41.276H5790.046c-9.3,0-18.647,2.157-26.479,7.157a47.727,47.727,0,0,0-16.226,63.928l338.044,595.089a47.691,47.691,0,0,0,41.358,24.038h.05a47.679,47.679,0,0,0,41.324-24.09l338.016-595.037A47.722,47.722,0,0,0,6489.884,5249.189Z" transform="translate(802.997 76)" fill="none" stroke="#23bcba" stroke-width="1"/>
  </g>
</svg>
