<svg xmlns="http://www.w3.org/2000/svg" width="58" height="57" viewBox="0 0 58 57">
  <g id="instagram-icon" transform="translate(-1502 -7071)">
    <rect id="Rectangle_312" data-name="Rectangle 312" width="58" height="57" rx="10" transform="translate(1502 7071)" fill="#fcb139"/>
    <g id="Group_243" data-name="Group 243" transform="translate(1218.381 6933.404)">
      <g id="Group_242" data-name="Group 242" transform="translate(297.216 150.694)">
        <path id="Path_176" data-name="Path 176" d="M324.006,157.011a1.806,1.806,0,1,0,1.806,1.806A1.806,1.806,0,0,0,324.006,157.011Z" transform="translate(-300.447 -151.511)" fill="#0e0e0f"/>
        <path id="Path_177" data-name="Path 177" d="M313.925,159.671a7.587,7.587,0,1,0,7.586,7.586A7.6,7.6,0,0,0,313.925,159.671Zm0,12.446a4.86,4.86,0,1,1,4.859-4.86A4.865,4.865,0,0,1,313.925,172.117Z" transform="translate(-298.396 -151.855)" fill="#0e0e0f"/>
        <path id="Path_178" data-name="Path 178" d="M318.768,181.5h-12.3a9.264,9.264,0,0,1-9.253-9.253v-12.3a9.264,9.264,0,0,1,9.253-9.253h12.3a9.264,9.264,0,0,1,9.254,9.253v12.3A9.264,9.264,0,0,1,318.768,181.5Zm-12.3-27.908a6.362,6.362,0,0,0-6.355,6.355v12.3a6.362,6.362,0,0,0,6.355,6.355h12.3a6.363,6.363,0,0,0,6.356-6.355v-12.3a6.363,6.363,0,0,0-6.356-6.355Z" transform="translate(-297.216 -150.694)" fill="#0e0e0f"/>
      </g>
    </g>
  </g>
</svg>
