<svg xmlns="http://www.w3.org/2000/svg" width="269.372" height="57" viewBox="0 0 269.372 57">
  <g id="logo3" transform="translate(-277.628 -88)">
    <text id="invistic." transform="translate(353 134)" fill="#fff" font-size="47" font-family="Bitter-Bold, Bitter" font-weight="700"><tspan x="0" y="0">invistic.</tspan></text>
    <g id="Group_821" data-name="Group 821" transform="translate(-5463.544 -5153.043)">
      <path id="Path_164" data-name="Path 164" d="M5799.049,5242.6a3.815,3.815,0,0,0-2.048-.552h-7.833a3.19,3.19,0,0,0-3.191,3.19h0a3.19,3.19,0,0,0,3.191,3.19h3.3l-21.485,37.822-21.485-37.822h29.646a3.191,3.191,0,0,0,3.191-3.19h0a3.191,3.191,0,0,0-3.191-3.19h-34.187a3.793,3.793,0,0,0-2.047.553,3.688,3.688,0,0,0-1.254,4.941l26.13,46a3.685,3.685,0,0,0,3.2,1.858h0a3.686,3.686,0,0,0,3.194-1.862l26.128-46A3.689,3.689,0,0,0,5799.049,5242.6Z" transform="translate(-0.003 -0.002)" fill="#fff"/>
    </g>
  </g>
</svg>
