<svg xmlns="http://www.w3.org/2000/svg" width="186.58" height="167.001" viewBox="0 0 186.58 167.001">
  <g id="logo2" transform="translate(-5741.172 -5242.043)">
    <path id="Path_164" data-name="Path 164" d="M5922.331,5243.772a11.937,11.937,0,0,0-6.411-1.729H5891.4a9.986,9.986,0,0,0-9.988,9.986h0a9.988,9.988,0,0,0,9.988,9.987h10.315l-67.25,118.387-67.253-118.387h92.8a9.988,9.988,0,0,0,9.987-9.987h0a9.986,9.986,0,0,0-9.987-9.986H5753a11.879,11.879,0,0,0-6.406,1.731,11.545,11.545,0,0,0-3.926,15.467l81.792,143.987a11.54,11.54,0,0,0,10.007,5.815h.013a11.533,11.533,0,0,0,10-5.828l81.786-143.975A11.546,11.546,0,0,0,5922.331,5243.772Z" transform="translate(-0.003 -0.001)" fill="#0e0e0f"/>
  </g>
</svg>
