<svg xmlns="http://www.w3.org/2000/svg" width="57" height="57" viewBox="0 0 57 57">
  <g id="twitter-icon" transform="translate(-1585 -7071)">
    <rect id="Rectangle_311" data-name="Rectangle 311" width="57" height="57" rx="10" transform="translate(1585 7071)" fill="#fcb139"/>
    <path id="Path_180" data-name="Path 180" d="M350.007,171.894a11.529,11.529,0,0,1-2.824.8c.454-.077,1.121-.9,1.389-1.231a5.191,5.191,0,0,0,.937-1.709c.025-.049.042-.11-.007-.147a.158.158,0,0,0-.149.012A14.423,14.423,0,0,1,346,170.906a.225.225,0,0,1-.231-.061,2.726,2.726,0,0,0-.292-.3,5.914,5.914,0,0,0-1.622-.994,5.643,5.643,0,0,0-2.487-.4,5.942,5.942,0,0,0-2.36.666,6.081,6.081,0,0,0-1.9,1.555,5.833,5.833,0,0,0-1.137,2.277,6.16,6.16,0,0,0-.06,2.4c.018.135.006.153-.116.135-4.6-.685-8.409-2.33-11.5-5.855-.134-.153-.207-.153-.317.012-1.354,2.029-.7,5.29.994,6.892.226.214.458.427.707.622a5.865,5.865,0,0,1-2.22-.622c-.134-.085-.2-.036-.214.116a3.479,3.479,0,0,0,.037.659,5.9,5.9,0,0,0,3.635,4.7,3.469,3.469,0,0,0,.737.226,6.57,6.57,0,0,1-2.177.067c-.159-.031-.22.049-.159.2a6.123,6.123,0,0,0,4.575,3.83c.207.036.414.036.623.085-.013.019-.025.019-.037.037-.514.783-2.294,1.366-3.124,1.656a11.181,11.181,0,0,1-4.744.607c-.255-.038-.309-.034-.378,0s-.009.1.073.17c.324.214.653.4.989.586a15.633,15.633,0,0,0,3.172,1.269c5.7,1.574,12.12.418,16.4-3.834,3.361-3.339,4.539-7.944,4.539-12.555,0-.181.213-.281.34-.375a11.115,11.115,0,0,0,2.232-2.321.705.705,0,0,0,.147-.444v-.024C350.121,171.82,350.12,171.843,350.007,171.894Z" transform="translate(1277.34 6918.87)" fill="#0e0e0f"/>
  </g>
</svg>
